<svg 
 xmlns="http://www.w3.org/2000/svg"
 xmlns:xlink="http://www.w3.org/1999/xlink"
 width="399px" height="171px">
<path fill-rule="evenodd"  fill="rgb(234, 149, 0)"
 d="M131.532,50.515 L131.532,47.000 C130.399,48.253 129.044,49.253 127.466,50.000 C125.888,50.747 123.965,51.121 121.700,51.121 C120.162,51.121 118.715,50.909 117.360,50.485 C116.004,50.060 114.821,49.424 113.810,48.575 C112.798,47.727 111.998,46.687 111.412,45.454 C110.825,44.222 110.532,42.798 110.532,41.181 L110.532,41.060 C110.532,39.283 110.856,37.748 111.503,36.454 C112.150,35.162 113.051,34.091 114.204,33.242 C115.357,32.394 116.732,31.757 118.331,31.333 C119.929,30.909 121.700,30.697 123.642,30.697 C125.301,30.697 126.747,30.818 127.982,31.060 C129.215,31.303 130.419,31.626 131.593,32.030 L131.593,31.484 C131.593,29.545 131.006,28.071 129.833,27.060 C128.659,26.051 126.919,25.545 124.613,25.545 C122.832,25.545 121.265,25.697 119.909,26.000 C118.553,26.303 117.127,26.737 115.631,27.303 L113.324,20.272 C115.104,19.505 116.966,18.878 118.908,18.393 C120.850,17.909 123.196,17.666 125.948,17.666 C131.006,17.666 134.688,18.899 136.994,21.363 C139.301,23.828 140.454,27.263 140.454,31.666 L140.454,50.515 L131.532,50.515 ZM131.714,37.424 C130.904,37.060 130.004,36.768 129.013,36.545 C128.021,36.323 126.959,36.212 125.827,36.212 C123.844,36.212 122.286,36.596 121.154,37.363 C120.020,38.131 119.454,39.242 119.454,40.697 L119.454,40.818 C119.454,42.071 119.919,43.040 120.850,43.727 C121.780,44.414 122.994,44.757 124.492,44.757 C126.677,44.757 128.426,44.233 129.742,43.181 C131.056,42.131 131.714,40.757 131.714,39.060 L131.714,37.424 ZM95.785,6.272 L105.010,6.272 L105.010,50.515 L95.785,50.515 L95.785,6.272 ZM89.595,37.484 L66.956,37.484 C67.401,39.586 68.322,41.172 69.718,42.242 C71.114,43.313 72.843,43.848 74.907,43.848 C76.444,43.848 77.820,43.586 79.034,43.060 C80.248,42.536 81.502,41.687 82.797,40.515 L88.077,45.181 C86.539,47.081 84.679,48.566 82.494,49.636 C80.309,50.706 77.739,51.242 74.786,51.242 C72.358,51.242 70.102,50.838 68.018,50.030 C65.934,49.222 64.134,48.071 62.617,46.575 C61.099,45.081 59.916,43.313 59.066,41.272 C58.216,39.233 57.792,36.960 57.792,34.454 L57.792,34.333 C57.792,32.030 58.186,29.848 58.975,27.787 C59.764,25.727 60.866,23.929 62.283,22.393 C63.699,20.858 65.388,19.646 67.351,18.757 C69.313,17.869 71.487,17.424 73.875,17.424 C76.586,17.424 78.933,17.909 80.916,18.878 C82.898,19.848 84.547,21.151 85.862,22.787 C87.176,24.424 88.147,26.303 88.775,28.424 C89.402,30.545 89.716,32.757 89.716,35.060 L89.716,35.181 C89.716,35.627 89.706,36.010 89.686,36.333 C89.665,36.657 89.634,37.040 89.595,37.484 ZM78.549,26.727 C77.375,25.454 75.817,24.818 73.875,24.818 C71.933,24.818 70.364,25.445 69.171,26.697 C67.978,27.949 67.199,29.626 66.835,31.727 L80.733,31.727 C80.450,29.666 79.722,28.000 78.549,26.727 ZM29.569,50.818 L12.393,8.090 L22.711,8.090 L33.818,37.969 L44.925,8.090 L55.000,8.090 L37.824,50.818 L29.569,50.818 Z"/>
<path fill-rule="evenodd"  fill="rgb(255, 255, 255)"
 d="M394.572,24.736 C379.972,54.011 319.060,100.439 318.832,100.667 C318.604,100.667 318.375,100.896 317.919,100.667 C316.837,102.555 315.776,104.431 314.736,106.291 C315.109,106.443 315.489,106.690 315.869,107.071 C317.694,109.130 317.466,110.959 316.553,111.874 C313.149,114.925 310.074,117.681 307.260,120.179 C296.587,140.840 290.142,157.602 292.596,162.876 C294.650,165.849 304.459,162.190 306.741,161.046 C319.744,154.185 364.458,118.964 370.162,109.358 C370.618,108.672 371.531,107.300 373.356,108.672 C375.181,109.816 376.321,111.645 375.865,112.331 C370.162,122.166 324.079,159.445 310.847,166.078 C302.634,170.423 288.946,174.540 283.243,165.392 C279.893,160.667 282.820,149.338 289.135,134.981 C288.182,135.600 287.282,136.137 286.440,136.575 C275.946,142.064 267.961,138.862 268.189,127.655 C259.976,135.431 251.535,142.521 246.516,140.234 C244.691,139.548 243.323,138.175 241.954,136.803 C240.757,135.243 239.947,133.619 239.504,131.933 C238.279,132.743 237.042,133.465 235.795,134.059 C227.811,137.947 217.773,136.117 216.404,126.283 C197.481,142.571 181.452,142.632 184.128,125.815 C167.938,139.012 145.328,153.935 138.384,141.149 C136.268,137.190 139.475,127.285 145.677,114.575 C141.603,115.320 137.770,115.758 135.420,115.533 C129.489,115.076 127.664,113.475 122.645,107.529 C119.223,103.412 98.919,121.480 98.919,121.480 C98.462,121.708 86.600,141.835 85.459,143.893 C84.774,145.037 82.493,144.351 80.668,142.521 C78.615,140.691 77.702,138.175 78.387,137.032 L79.821,134.709 C70.798,140.546 61.920,143.451 57.856,136.346 C55.533,132.187 55.753,126.939 57.532,121.395 C52.245,123.145 46.958,122.911 44.169,117.134 L43.941,116.677 C35.500,125.825 27.288,133.373 20.672,137.947 C17.250,140.463 14.284,142.292 12.003,143.207 C8.352,144.351 4.930,143.664 2.193,140.463 C1.052,139.090 0.368,137.718 0.140,136.117 C-1.001,131.086 4.930,120.565 10.862,111.417 L10.406,110.959 C8.581,108.901 8.124,106.614 9.037,105.928 L21.128,94.035 C22.040,93.120 26.147,95.178 27.972,97.237 C29.569,99.066 30.253,101.125 29.569,102.040 C29.341,102.268 14.056,123.538 9.493,134.745 C8.124,137.947 11.318,137.032 13.600,134.745 C24.094,127.197 39.150,110.959 52.154,93.577 L53.523,91.519 C54.435,90.375 55.576,90.375 57.401,92.434 C59.454,94.264 61.736,98.380 60.823,99.295 C60.823,99.524 51.698,111.188 51.698,115.991 C51.698,116.167 56.147,115.522 61.519,112.520 C66.599,103.507 74.051,94.574 78.844,90.604 C79.985,89.689 82.266,90.604 84.092,92.663 C85.917,94.721 86.601,97.008 85.460,97.923 C80.441,102.268 72.229,112.103 67.210,121.708 C64.016,128.112 64.244,131.772 66.525,132.915 C71.396,133.630 80.595,127.273 88.296,120.985 L111.010,84.200 C111.694,83.057 113.976,83.743 115.801,85.573 C117.854,87.402 118.766,89.918 118.082,91.062 L109.641,104.555 C117.626,100.667 128.576,97.008 133.139,102.726 C135.192,105.013 134.508,110.273 137.473,110.502 C140.371,110.655 144.191,110.286 148.242,109.485 C151.629,102.955 155.654,95.856 160.056,88.546 C159.828,88.546 161.425,86.030 161.425,86.030 C161.848,69.911 111.689,70.706 104.392,70.907 L92.989,83.972 C92.076,85.115 89.795,84.200 87.970,82.371 C86.145,80.312 85.232,78.025 86.145,76.882 L97.371,64.019 C97.460,63.494 97.763,63.128 98.264,62.996 L98.920,62.244 C99.661,61.316 101.156,61.757 102.790,62.930 L175.798,62.930 C194.961,32.970 214.124,6.211 214.352,5.982 C215.037,5.067 217.318,5.525 219.143,7.583 C220.968,9.413 221.881,11.929 221.196,12.843 C221.196,13.072 204.543,36.172 186.748,62.930 L244.922,62.930 C246.519,62.930 249.029,64.760 250.169,66.819 C251.538,69.106 251.310,70.935 249.713,70.935 L181.501,70.935 C176.710,78.254 171.919,85.801 167.357,93.120 L167.357,93.349 C167.357,94.264 166.900,94.721 166.444,94.721 C163.405,99.666 160.670,104.153 158.278,108.194 C158.339,108.273 158.400,108.352 158.462,108.443 C160.059,110.730 159.146,111.417 157.777,111.645 C157.200,111.825 156.581,112.006 155.945,112.187 C148.981,124.276 145.736,131.741 147.509,134.974 C150.430,140.505 174.701,123.358 188.474,112.913 C192.680,104.127 199.791,94.888 205.454,88.775 C206.366,87.860 208.648,88.775 210.473,90.604 C212.298,92.663 212.982,94.950 212.298,96.093 C208.412,100.553 205.334,104.699 202.906,108.468 C202.828,109.105 202.405,109.594 201.961,109.968 C194.460,122.168 193.997,130.062 195.188,131.086 C197.925,133.373 215.492,122.166 227.811,101.353 L228.495,100.439 C229.408,99.524 231.689,100.210 233.514,102.268 C235.339,104.098 236.252,106.614 235.339,107.529 C235.339,107.529 234.883,108.215 233.742,109.130 C230.777,112.789 213.666,137.032 230.777,128.798 C233.738,127.352 236.875,125.443 239.964,123.261 C240.400,121.699 240.990,120.104 241.726,118.507 C244.691,112.103 249.938,105.013 255.870,100.210 C266.136,91.748 284.843,91.290 288.721,104.555 C289.634,106.842 288.949,108.215 287.124,107.757 C285.299,107.300 283.018,105.241 282.105,103.183 C277.543,98.838 266.364,104.098 262.258,107.529 C261.805,107.896 261.368,108.270 260.937,108.646 C260.999,109.603 260.332,110.375 259.749,110.959 C257.032,114.491 253.824,118.557 250.306,122.371 C248.686,125.681 247.444,129.255 246.516,133.144 C254.501,130.857 275.261,106.614 275.261,106.614 C276.174,105.699 278.227,106.385 280.280,108.443 C281.877,110.273 282.790,112.331 282.105,113.475 C281.649,114.619 278.911,120.565 280.280,126.969 C280.761,129.861 289.224,124.306 297.190,118.370 C319.477,75.657 358.310,20.693 359.668,20.391 C366.968,9.870 376.550,2.780 383.622,0.722 C386.131,0.036 388.641,-0.193 390.922,0.722 C394.800,1.865 397.538,4.381 398.679,8.041 C399.591,11.471 398.679,16.960 394.572,24.736 ZM170.779,70.935 L142.262,69.792 C149.106,72.536 160.285,77.110 163.935,81.913 C166.216,78.254 168.497,74.595 170.779,70.935 ZM392.063,5.525 C391.378,5.525 390.238,5.753 389.097,5.982 C382.481,8.041 373.356,14.902 366.055,25.194 C366.055,25.194 347.577,52.181 329.098,82.371 C348.033,66.590 378.375,39.602 388.184,20.162 C391.606,13.301 392.747,8.498 392.063,5.525 Z"/>
</svg>